<?xml version="1.0" standalone="no"?>
<!DOCTYPE svg PUBLIC "-//W3C//DTD SVG 20010904//EN"
 "http://www.w3.org/TR/2001/REC-SVG-20010904/DTD/svg10.dtd">
<svg version="1.0" xmlns="http://www.w3.org/2000/svg"
 width="1080.000000pt" height="1080.000000pt" viewBox="0 0 1080.000000 1080.000000"
 preserveAspectRatio="xMidYMid meet">

<g transform="translate(0.000000,1080.000000) scale(0.100000,-0.100000)"
fill="#000000" stroke="none">
<path d="M6689 9193 c-22 -48 -51 -110 -64 -138 -82 -177 -145 -329 -145 -352
0 -11 -5 -35 -11 -53 -13 -37 0 -119 29 -180 25 -51 94 -122 144 -146 131 -66
195 -80 275 -63 83 18 123 41 179 102 56 61 93 132 216 412 21 50 48 107 59
128 25 50 24 62 -8 87 -22 17 -29 18 -39 8 -10 -11 -104 -212 -186 -398 -39
-91 -54 -116 -95 -167 -60 -71 -114 -96 -201 -91 -157 9 -292 128 -292 257 1
65 26 136 119 334 22 48 41 90 41 93 0 7 63 143 86 186 14 27 14 28 -26 48
l-41 21 -40 -88z"/>
<path d="M5368 8933 c-2 -183 1 -334 6 -340 4 -7 19 -13 31 -13 23 0 23 1 27
173 6 211 25 300 76 353 41 42 105 74 149 74 26 0 36 5 42 23 16 42 4 50 -65
44 -67 -5 -104 -24 -156 -82 -18 -20 -28 -25 -28 -15 -1 8 -2 35 -3 60 -2 44
-3 45 -39 48 l-36 3 -4 -328z"/>
<path d="M4775 9216 c-100 -20 -158 -60 -213 -145 l-37 -56 0 -126 c0 -107 3
-130 18 -146 9 -11 17 -26 17 -35 0 -25 83 -104 140 -133 124 -64 297 -39 405
58 30 27 55 52 55 57 0 4 -11 15 -25 24 -25 17 -27 16 -72 -24 -29 -25 -67
-46 -101 -56 -71 -21 -174 -16 -226 12 -49 25 -112 98 -120 139 -6 29 -4 31
36 42 24 7 74 15 111 18 37 4 82 11 100 16 18 5 73 14 122 19 163 18 191 38
166 120 -32 108 -130 195 -244 216 -40 8 -72 13 -72 13 0 -1 -27 -7 -60 -13z
m173 -85 c52 -27 108 -89 120 -134 10 -36 9 -39 -14 -48 -14 -5 -41 -9 -59 -9
-19 0 -67 -7 -107 -15 -76 -15 -225 -37 -268 -39 -63 -3 -19 141 65 210 55 47
70 52 158 53 49 1 78 -4 105 -18z"/>
<path d="M4018 9010 c-105 -18 -215 -108 -237 -195 -13 -53 -25 -57 -40 -13
-6 18 -18 42 -26 55 -13 19 -19 21 -45 12 -35 -13 -37 -30 -11 -82 10 -20 22
-49 25 -63 4 -14 19 -53 35 -87 15 -34 36 -82 46 -107 10 -25 27 -64 37 -87
10 -23 18 -46 18 -51 0 -5 7 -15 15 -22 8 -7 15 -21 15 -32 0 -17 16 -58 50
-133 5 -11 22 -52 38 -91 39 -99 53 -118 80 -110 47 15 44 47 -22 191 -8 17
-24 55 -36 85 -12 30 -26 60 -32 67 -16 19 9 25 41 8 21 -10 59 -15 121 -15
109 0 169 23 239 92 67 66 91 125 91 228 0 77 -3 93 -34 155 -74 154 -202 222
-368 195z m144 -86 c49 -19 112 -74 136 -119 8 -16 23 -57 32 -90 14 -53 14
-67 2 -115 -21 -80 -47 -114 -127 -167 -31 -20 -56 -27 -110 -31 -77 -5 -120
10 -184 63 -38 32 -89 137 -97 199 -9 61 27 153 78 203 67 66 183 90 270 57z"/>
<path d="M3163 8886 c-26 -22 -27 -25 -12 -43 9 -10 62 -92 119 -183 56 -91
109 -173 117 -182 8 -9 22 -30 31 -47 10 -17 46 -76 82 -132 36 -56 74 -116
84 -135 11 -19 32 -49 47 -66 l27 -33 26 24 c14 14 26 28 26 32 0 9 -76 129
-236 374 -33 50 -62 98 -67 109 -4 10 -21 35 -37 56 -17 21 -30 41 -30 44 0
13 -131 206 -140 206 -5 0 -21 -11 -37 -24z"/>
<path d="M7711 8703 c-16 -21 -57 -76 -90 -123 -33 -47 -93 -130 -133 -184
-167 -228 -268 -372 -268 -383 0 -14 39 -43 57 -43 12 0 63 64 148 186 22 32
60 85 85 119 25 33 50 68 55 77 6 8 40 56 78 106 159 213 166 224 147 247 -31
38 -47 37 -79 -2z"/>
<path d="M5820 8673 c-41 -15 -54 -78 -22 -106 25 -23 64 -21 90 3 53 49 1
128 -68 103z"/>
<path d="M8285 8360 c-49 -27 -110 -59 -135 -71 -25 -13 -90 -47 -145 -77 -55
-30 -147 -79 -204 -109 -57 -30 -127 -68 -156 -83 -28 -15 -113 -60 -188 -100
-75 -39 -147 -80 -159 -90 l-23 -19 22 -22 22 -23 53 27 c47 24 107 56 298
159 30 16 100 53 155 82 222 117 302 159 340 181 22 13 90 48 150 80 131 68
143 78 125 99 -21 26 -60 17 -155 -34z"/>
<path d="M2921 8349 c-95 -43 -161 -115 -194 -213 -21 -62 -21 -103 -1 -174
30 -104 107 -196 199 -238 43 -19 70 -24 134 -24 70 0 90 4 148 32 117 55 198
160 205 263 3 49 3 50 -28 53 -29 3 -32 1 -38 -36 -12 -79 -95 -186 -166 -214
-88 -34 -207 -24 -256 23 -25 23 -31 45 -15 51 5 2 51 42 103 89 51 47 138
125 193 173 55 48 102 92 104 98 6 18 -86 93 -143 116 -75 29 -182 30 -245 1z
m217 -73 c88 -44 91 -38 -90 -198 -90 -80 -169 -152 -177 -161 -20 -25 -28
-21 -53 26 -18 33 -23 58 -23 118 1 73 2 79 37 123 65 84 119 115 201 116 42
0 71 -7 105 -24z"/>
<path d="M8372 7998 c-56 -40 -150 -107 -209 -148 -120 -84 -220 -178 -245
-230 -9 -19 -21 -60 -28 -90 -23 -114 37 -261 147 -359 31 -28 63 -51 70 -51
8 0 25 -7 38 -16 19 -12 44 -15 112 -13 78 4 96 8 158 40 39 20 135 83 214
140 79 57 174 125 210 150 36 25 67 52 69 60 1 9 -7 27 -18 42 l-22 27 -26
-20 c-15 -11 -67 -48 -115 -82 -48 -35 -138 -99 -200 -143 -157 -112 -196
-130 -282 -130 -58 0 -78 5 -117 27 -55 33 -97 82 -135 157 -37 73 -37 150 0
214 28 48 110 127 179 173 73 49 267 187 319 227 l49 38 -22 29 c-12 17 -27
30 -33 30 -6 0 -57 -33 -113 -72z"/>
<path d="M2460 7926 l-21 -35 24 -38 c13 -21 37 -63 54 -93 40 -73 106 -189
143 -250 36 -61 90 -157 90 -162 0 -6 -123 16 -150 26 -8 4 -44 10 -80 15 -36
5 -78 13 -95 19 -41 14 -157 41 -230 52 -54 9 -61 8 -82 -12 -33 -31 -29 -46
15 -53 20 -3 60 -12 87 -19 28 -8 77 -19 110 -26 33 -6 89 -18 125 -26 36 -8
92 -19 125 -25 33 -6 82 -17 109 -25 26 -8 68 -14 92 -14 37 0 45 4 57 28 16
31 7 81 -18 102 -8 7 -15 16 -15 21 0 5 -44 85 -98 177 -54 92 -101 174 -105
182 -5 8 -19 33 -32 55 -13 22 -34 59 -47 83 -12 24 -25 45 -29 48 -4 2 -17
-11 -29 -30z"/>
<path d="M2052 7158 c-98 -39 -161 -112 -198 -228 -46 -149 37 -314 196 -388
75 -35 212 -37 280 -5 69 33 123 85 160 154 47 88 62 167 47 244 -11 57 -13
60 -42 60 l-30 0 0 -95 c-1 -114 -21 -166 -89 -234 -65 -65 -171 -93 -238 -63
l-27 12 74 168 c41 92 88 198 106 235 17 37 32 80 33 96 1 28 -3 31 -54 47
-74 24 -153 23 -218 -3z m166 -65 c30 -8 27 -29 -23 -138 -20 -44 -45 -98 -55
-120 -91 -201 -88 -197 -107 -186 -21 11 -73 65 -96 101 -26 38 -23 168 5 217
39 69 79 103 148 124 31 9 98 11 128 2z"/>
<path d="M9024 7088 c-21 -35 -43 -70 -49 -79 -5 -10 -38 -58 -72 -108 -35
-50 -63 -94 -63 -98 -1 -5 -16 -26 -34 -47 -31 -36 -36 -39 -62 -29 -27 10
-85 28 -219 66 -146 42 -204 60 -239 73 -47 18 -56 10 -44 -34 7 -25 18 -37
46 -49 43 -18 114 -40 192 -58 30 -7 66 -17 80 -23 14 -6 58 -20 98 -32 39
-11 72 -25 72 -30 0 -5 -58 -97 -130 -203 -71 -107 -130 -201 -130 -209 0 -24
21 -78 30 -78 5 0 44 53 86 118 236 358 233 354 257 346 58 -17 126 -38 165
-50 23 -8 52 -14 63 -14 11 0 29 -5 40 -11 11 -5 60 -22 110 -36 103 -29 121
-24 95 25 -12 23 -27 34 -59 43 -23 6 -60 17 -82 25 -22 7 -74 22 -115 34
-120 33 -181 53 -186 61 -5 9 26 61 140 231 49 73 91 142 94 153 5 28 -15 75
-31 75 -8 0 -32 -28 -53 -62z"/>
<path d="M1657 6416 c-182 -77 -271 -212 -306 -466 -5 -36 -14 -95 -21 -131
-6 -37 -10 -87 -8 -110 3 -44 3 -44 53 -56 28 -6 74 -12 103 -12 29 -1 62 -6
72 -11 10 -6 72 -17 137 -25 203 -27 267 -36 303 -46 62 -17 183 -28 201 -19
13 7 19 34 28 112 6 57 16 119 22 138 6 19 13 90 16 157 5 110 3 130 -17 190
-43 126 -112 205 -230 261 -69 33 -84 36 -185 39 -99 3 -116 1 -168 -21z m317
-96 c61 -28 141 -101 168 -153 11 -22 26 -71 34 -110 14 -63 13 -84 -1 -191
-9 -67 -21 -147 -28 -178 -13 -65 -14 -66 -108 -47 -30 5 -97 16 -149 24 -84
12 -186 28 -419 64 -35 5 -65 12 -67 14 -5 5 11 135 32 252 29 164 91 260 207
319 l72 38 105 -5 c82 -3 116 -9 154 -27z"/>
<path d="M8808 5814 c-153 -37 -258 -170 -258 -326 0 -88 33 -164 99 -228 l36
-35 -55 -3 c-59 -3 -70 -12 -70 -54 0 -20 5 -28 18 -28 9 0 212 0 451 0 477 1
486 2 486 55 l0 30 -198 3 -198 2 40 46 c164 186 66 481 -179 539 -78 18 -97
18 -172 -1z m209 -103 c101 -49 143 -117 143 -231 0 -110 -41 -180 -134 -227
-42 -21 -65 -26 -131 -26 -114 -1 -181 35 -241 128 -15 24 -19 48 -19 125 0
94 1 97 35 145 80 110 223 146 347 86z"/>
<path d="M1967 5035 c-55 -15 -79 -34 -114 -89 -26 -40 -34 -91 -52 -317 -12
-154 -35 -198 -111 -219 -28 -8 -52 -8 -78 0 -75 20 -115 77 -147 208 -17 73
-17 96 5 186 11 45 11 51 -6 63 -52 38 -78 -15 -78 -157 0 -125 26 -218 83
-293 53 -70 104 -97 186 -97 78 0 131 23 170 74 42 55 54 111 63 281 10 180
23 223 81 262 43 29 94 29 146 2 33 -18 47 -36 78 -98 36 -74 37 -81 37 -183
0 -85 -4 -118 -22 -163 -18 -48 -19 -58 -7 -66 70 -46 125 114 100 295 -23
167 -97 279 -206 311 -62 17 -64 17 -128 0z"/>
<path d="M8688 4937 c-75 -27 -88 -35 -136 -87 -43 -45 -66 -90 -86 -168 -20
-78 -20 -106 -2 -174 25 -95 35 -105 81 -88 29 11 31 18 8 49 -21 30 -29 151
-14 207 14 54 46 98 102 146 42 35 53 40 119 45 l73 6 -7 -34 c-4 -19 -10 -52
-13 -74 -3 -22 -11 -58 -18 -80 -7 -22 -23 -85 -35 -140 -12 -55 -28 -123 -37
-152 -8 -29 -13 -60 -11 -70 6 -33 117 -43 195 -18 106 34 168 87 209 179 38
82 40 208 5 274 -25 48 -97 132 -114 132 -6 0 -18 6 -26 14 -23 19 -117 47
-176 52 -36 3 -69 -2 -117 -19z m255 -103 c76 -38 137 -133 137 -212 0 -84
-67 -189 -142 -225 -41 -20 -133 -33 -141 -20 -6 10 16 154 26 170 4 5 10 34
16 64 5 30 16 86 26 124 9 39 19 80 21 93 5 26 14 27 57 6z"/>
<path d="M8372 4253 c-92 -92 -133 -177 -140 -288 -7 -125 24 -174 129 -206
65 -20 148 35 224 150 16 24 50 65 75 92 42 45 50 49 91 49 130 0 126 -181 -8
-322 -47 -50 -53 -60 -43 -78 26 -48 59 -31 129 65 67 91 83 137 83 230 1 65
-3 91 -19 117 -37 65 -146 98 -212 64 -34 -18 -96 -85 -143 -156 -59 -88 -102
-125 -148 -125 -27 0 -46 8 -64 24 -22 21 -26 33 -26 84 0 82 51 178 134 253
l60 55 -16 27 c-9 14 -21 28 -27 30 -6 2 -42 -27 -79 -65z"/>
<path d="M2248 4225 c-31 -8 -85 -27 -120 -43 -34 -16 -124 -56 -198 -87 -74
-32 -142 -62 -150 -66 -8 -5 -54 -25 -102 -45 -49 -20 -88 -38 -88 -39 0 -2
22 -55 50 -120 17 -39 81 -181 98 -215 19 -39 39 -47 67 -27 18 14 17 19 -37
143 -80 185 -81 164 9 206 187 85 452 198 494 209 66 18 130 -7 167 -65 34
-53 43 -166 18 -217 -20 -40 -21 -38 9 -49 55 -21 88 29 88 130 0 134 -76 252
-184 284 -29 9 -55 16 -58 15 -3 0 -31 -7 -63 -14z"/>
<path d="M2576 3824 c-12 -31 -6 -51 20 -65 14 -7 37 -36 51 -63 24 -47 24
-51 9 -82 -8 -18 -37 -49 -63 -69 -52 -40 -241 -166 -303 -203 l-39 -23 -51
81 c-53 81 -75 96 -100 65 -16 -19 -7 -37 64 -143 25 -36 27 -45 15 -53 -8 -6
-35 -24 -61 -40 -27 -17 -48 -34 -48 -37 1 -4 9 -17 19 -29 20 -24 55 -30 66
-13 11 18 87 52 94 42 29 -46 57 -82 62 -82 4 0 17 9 30 19 22 18 23 21 8 38
-8 10 -21 31 -28 48 -12 29 -11 31 26 62 21 18 41 33 45 33 16 0 276 181 307
213 32 34 34 40 34 104 0 77 -14 112 -65 159 -29 28 -69 54 -81 54 -3 0 -8 -7
-11 -16z"/>
<path d="M8054 3704 c-11 -21 -15 -38 -9 -41 6 -2 51 -29 100 -62 225 -146
296 -191 299 -191 3 0 37 -23 78 -51 l73 -50 23 26 c28 33 28 51 0 66 -13 7
-137 86 -276 176 -140 89 -257 163 -261 163 -4 0 -16 -16 -27 -36z"/>
<path d="M7760 3606 c-73 -27 -87 -35 -146 -79 -56 -41 -154 -159 -154 -185 0
-5 -7 -23 -15 -38 -21 -41 -19 -103 7 -171 18 -46 40 -75 108 -143 175 -174
426 -400 443 -400 8 0 20 11 27 25 13 24 11 28 -23 63 -20 21 -37 40 -37 44 0
3 30 8 68 10 109 9 212 82 269 192 23 44 27 63 27 146 1 102 -12 140 -69 208
-57 68 -168 122 -250 122 -46 0 -131 -25 -156 -46 -8 -8 -20 -14 -25 -14 -20
0 -105 -96 -130 -146 -15 -30 -29 -81 -33 -121 l-7 -68 -66 67 c-76 77 -95
128 -77 208 21 93 139 208 257 250 50 18 62 27 62 44 0 24 -17 46 -34 46 -6
-1 -27 -7 -46 -14z m361 -321 c52 -27 103 -87 126 -148 38 -104 -13 -232 -125
-309 -43 -29 -54 -32 -127 -32 -64 -1 -88 4 -122 22 -74 39 -143 144 -143 219
0 86 79 206 167 252 58 31 159 28 224 -4z"/>
<path d="M2797 3364 c-3 -3 -1 -19 5 -35 8 -23 16 -29 38 -29 80 0 180 -67
220 -146 29 -58 32 -158 8 -215 -23 -54 -85 -117 -142 -147 -40 -20 -65 -26
-116 -26 -79 0 -128 22 -188 88 -50 55 -62 82 -65 150 -2 56 -9 66 -48 66 -95
0 -8 -235 119 -322 127 -87 254 -90 381 -7 136 89 194 260 139 405 -27 70
-120 170 -187 203 -42 20 -149 30 -164 15z"/>
<path d="M8768 3269 c-21 -12 -24 -69 -6 -87 7 -7 28 -12 48 -12 45 0 60 15
60 57 0 47 -55 70 -102 42z"/>
<path d="M3299 2801 c-51 -75 -107 -156 -123 -181 -58 -85 -70 -117 -69 -185
1 -74 19 -110 87 -173 73 -67 182 -112 281 -116 28 -1 30 2 33 37 l3 37 -48 0
c-93 1 -206 63 -250 137 -22 38 -25 52 -20 95 4 31 17 66 33 90 l27 38 28 -17
c16 -10 66 -43 111 -73 131 -87 137 -90 224 -90 77 0 77 0 115 40 91 96 67
230 -57 319 -74 53 -154 77 -216 64 l-47 -9 21 34 c24 38 15 75 -21 85 -17 4
-35 -17 -112 -132z m264 -52 c67 -34 106 -67 128 -111 27 -53 19 -100 -26
-145 -40 -40 -85 -44 -146 -12 -39 20 -192 121 -216 143 -18 16 41 102 86 126
49 26 121 25 174 -1z"/>
<path d="M7323 2898 c-30 -15 -29 -24 11 -83 174 -258 195 -300 196 -385 0
-74 -19 -113 -79 -168 -35 -32 -125 -72 -159 -72 -35 1 -98 38 -137 82 -22 25
-76 102 -120 172 -44 71 -90 141 -103 157 l-23 29 -30 -22 c-17 -13 -27 -28
-24 -36 3 -8 34 -58 68 -111 35 -53 83 -127 108 -166 96 -151 181 -201 302
-176 34 7 84 26 110 43 76 48 147 152 147 214 0 32 20 27 38 -9 19 -40 48 -52
78 -32 13 8 24 18 24 20 0 3 -34 58 -76 122 -88 136 -137 211 -220 340 -32 51
-66 92 -74 92 -8 0 -25 -5 -37 -11z"/>
<path d="M3986 2504 c-60 -16 -71 -26 -58 -51 9 -16 24 -18 114 -18 91 0 109
-3 153 -27 100 -52 155 -136 155 -236 0 -70 -13 -88 -51 -69 -13 7 -53 23 -89
36 -36 13 -78 29 -95 36 -76 34 -104 45 -110 45 -4 0 -21 6 -38 14 -156 70
-173 72 -182 19 -4 -21 -11 -50 -17 -65 -17 -46 7 -156 49 -224 32 -53 115
-117 173 -134 59 -17 190 -12 235 9 60 27 140 110 170 176 23 49 27 71 27 154
0 85 -3 104 -26 148 -27 54 -98 123 -157 154 -34 17 -170 51 -194 48 -5 -1
-32 -8 -59 -15z m142 -398 c62 -25 118 -46 126 -46 8 0 24 -8 36 -18 l21 -17
-29 -41 c-91 -126 -280 -127 -386 -3 -51 61 -70 141 -46 203 l9 26 78 -29 c43
-16 129 -50 191 -75z"/>
<path d="M6447 2435 c-26 -7 -67 -22 -90 -33 -45 -21 -147 -122 -147 -145 0
-14 40 -57 53 -57 4 0 7 7 7 15 0 9 20 37 44 63 90 96 250 120 353 53 52 -33
98 -92 90 -114 -5 -14 -52 -33 -147 -61 -25 -7 -90 -30 -145 -50 -55 -20 -122
-44 -150 -52 -73 -23 -81 -34 -66 -86 9 -30 33 -61 80 -108 55 -54 76 -68 126
-83 79 -22 118 -22 189 3 162 58 243 171 234 330 -14 232 -215 384 -431 325z
m349 -321 c3 -19 2 -61 -5 -92 -9 -50 -17 -63 -65 -109 -98 -92 -195 -103
-306 -35 -44 27 -93 87 -87 106 2 5 32 20 68 33 35 13 73 27 84 32 11 4 58 21
105 36 47 16 105 37 130 46 64 24 68 23 76 -17z"/>
<path d="M4596 2321 c-4 -6 29 -79 74 -163 44 -83 80 -156 80 -160 0 -4 -7 -8
-15 -8 -29 0 -110 -48 -147 -87 -55 -57 -71 -103 -71 -208 0 -49 6 -103 12
-118 6 -16 35 -52 64 -81 65 -65 154 -102 282 -116 50 -5 115 -14 145 -19 94
-16 138 -14 150 9 6 10 17 77 25 147 13 121 22 187 45 348 6 39 17 124 25 190
8 66 17 132 21 146 5 23 2 28 -27 38 -52 18 -59 15 -59 -29 0 -21 -7 -65 -15
-97 -8 -31 -15 -73 -15 -93 0 -58 -11 -66 -67 -52 -26 6 -95 16 -152 21 -84 8
-107 13 -115 28 -32 53 -138 252 -147 276 -8 19 -18 27 -34 27 -13 0 -30 3
-38 6 -8 3 -18 1 -21 -5z m389 -411 c28 -5 76 -12 108 -16 l59 -6 -7 -50 c-4
-28 -11 -84 -15 -127 -10 -95 -37 -272 -43 -277 -7 -8 -200 18 -280 37 -98 23
-154 60 -189 124 -32 58 -34 86 -12 162 42 146 157 192 379 153z"/>
<path d="M5927 2293 c-16 -4 -18 -11 -12 -51 4 -26 11 -51 16 -56 5 -6 9 -36
9 -67 0 -31 7 -96 15 -145 15 -82 15 -94 -1 -151 -20 -75 -63 -120 -146 -153
-32 -13 -58 -29 -58 -36 0 -48 44 -58 108 -24 51 27 76 49 105 93 29 43 39 37
47 -33 5 -45 5 -45 40 -42 19 2 37 6 39 8 7 6 -19 174 -35 230 -7 28 -14 71
-14 95 0 24 -5 71 -11 104 -6 33 -16 98 -23 145 -10 80 -12 85 -36 87 -14 0
-33 -1 -43 -4z"/>
<path d="M5465 2235 c-29 -28 -31 -51 -9 -83 17 -25 81 -31 102 -10 19 19 14
76 -8 98 -27 27 -56 25 -85 -5z"/>
</g>
</svg>
